<svg width="128" height="46" viewBox="0 0 128 46" fill="none" xmlns="http://www.w3.org/2000/svg">
<path fill-rule="evenodd" clip-rule="evenodd" d="M5.31006 17.6735L16.5545 6.43575L21.242 11.1204L10.0056 22.3501L5.31006 17.6735ZM0 22.987L4.68747 18.3024L9.37494 22.987L4.68747 27.6717L0 22.987ZM9.99884 23.6075L5.31137 28.2922L16.5558 39.53L21.2433 34.8453L9.99884 23.6075ZM21.8116 11.6937L33.0946 22.97L28.4517 27.6101L28.4519 27.6102L21.8618 34.1964L15.3716 27.71L19.9646 23.1198L15.1717 18.3298L21.8116 11.6937Z" fill="#282828"/>
<path d="M55.9056 15.5928C57.0225 14.9226 57.7175 13.6816 57.7175 12.0434C57.7175 9.63575 56.0545 7.12882 52.4554 7.12882H45.3566V25H53.1753C56.6999 25 58.5366 22.8654 58.5366 19.6883C58.5366 17.8763 57.6431 16.3126 55.9056 15.5928ZM48.3848 9.9336H52.4058C53.8206 9.9336 54.6645 10.852 54.6645 12.093C54.6645 13.5327 53.6965 14.2525 52.4058 14.2525H48.3848V9.9336ZM52.8029 22.1704H48.3848V17.0573H52.8774C54.5404 17.0573 55.5084 18.1494 55.5084 19.589C55.5084 21.1776 54.3667 22.1704 52.8029 22.1704ZM66.9475 25.3723C70.9437 25.3723 73.6243 22.4682 73.6243 18.2983C73.6243 14.1532 70.9685 11.2243 66.9475 11.2243C62.9761 11.2243 60.2706 14.1035 60.2706 18.2983C60.2706 22.4434 62.9016 25.3723 66.9475 25.3723ZM66.9475 22.5675C64.6391 22.5675 63.4477 20.9045 63.4477 18.2983C63.4477 15.7666 64.5398 14.0291 66.9475 14.0291C69.2807 14.0291 70.4721 15.6921 70.4721 18.2983C70.4721 20.8052 69.3055 22.5675 66.9475 22.5675ZM76.3339 25H79.3869V18.5465L84.5249 25H88.4714L82.837 18.2983L88.0247 11.5966H84.3015L79.3869 18.0501V7.12882H76.3587L76.3339 25ZM98.7495 11.5966V18.4721C98.7495 21.7236 97.1361 22.5675 95.622 22.5675C92.7676 22.5675 92.4946 19.7131 92.4946 18.0501V11.5966H89.4664V19.0678C89.4664 20.6811 89.8139 25.3723 94.7285 25.3723C96.6645 25.3723 98.1538 24.6773 99.1218 23.5107V25H101.778V11.5966H98.7495ZM110.44 25.3723C113.89 25.3723 115.95 23.7341 115.95 21.0286C115.95 18.9437 114.808 17.9012 111.581 17.0573C108.454 16.263 107.933 15.9899 107.933 15.1957C107.933 14.3021 108.876 13.756 110.266 13.8057C111.73 13.905 112.649 14.6 112.798 15.7169L115.851 15.1708C115.528 12.7632 113.344 11.2243 110.216 11.2243C107.014 11.2243 104.954 12.8377 104.954 15.3446C104.954 17.3551 106.121 18.3479 109.496 19.2415C112.525 20.0358 112.897 20.2592 112.897 21.1776C112.897 22.1704 112.053 22.7661 110.638 22.7661C109 22.7661 107.858 21.9718 107.56 20.6315L104.507 21.1031C104.954 23.8086 107.114 25.3723 110.44 25.3723Z" fill="#282828"/>
<path d="M54.0391 42.0335L54.0262 35.4691L50.7697 40.9394H50.1776L46.9212 35.5077V42.0335H45.6855V33.0235H46.741L50.4994 39.3562L54.2064 33.0235H55.2619L55.2748 42.0335H54.0391ZM68.2245 39.781H63.4363L62.4452 42.0335H61.1194L65.1997 33.0235H66.474L70.5671 42.0335H69.2156L68.2245 39.781ZM67.774 38.7513L65.8304 34.3364L63.8868 38.7513H67.774ZM82.4401 42.0335L80.4965 39.2661C80.2562 39.2833 80.0674 39.2919 79.9301 39.2919H77.7034V42.0335H76.4162V33.0235H79.9301C81.0972 33.0235 82.0153 33.3023 82.6846 33.8601C83.354 34.4179 83.6886 35.1859 83.6886 36.1641C83.6886 36.8592 83.517 37.4513 83.1738 37.9404C82.8305 38.4295 82.3414 38.7856 81.7064 39.0087L83.8431 42.0335H82.4401ZM79.8915 38.1978C80.7067 38.1978 81.3288 38.0219 81.7579 37.6701C82.1869 37.3183 82.4015 36.8163 82.4015 36.1641C82.4015 35.512 82.1869 35.0143 81.7579 34.671C81.3288 34.3192 80.7067 34.1433 79.8915 34.1433H77.7034V38.1978H79.8915ZM93.2079 38.0305L91.5604 39.7038V42.0335H90.2732V33.0235H91.5604V38.0562L96.4515 33.0235H97.9189L94.0703 37.078L98.1634 42.0335H96.6575L93.2079 38.0305ZM110.568 40.9137V42.0335H104.03V33.0235H110.388V34.1433H105.317V36.9107H109.835V38.0047H105.317V40.9137H110.568ZM118.947 34.1433H115.858V33.0235H123.31V34.1433H120.221V42.0335H118.947V34.1433Z" fill="#282828"/>
</svg>
